<?xml version="1.0" encoding="UTF-8"?>
<svg id="Layer_2" data-name="Layer 2" xmlns="http://www.w3.org/2000/svg" viewBox="0 0 22 14">
  <defs>
    <style>
      .cls-1 {
        fill: #f3f3f4;
        stroke-width: 0px;
      }
    </style>
  </defs>
  <g id="Layer_1-2" data-name="Layer 1">
    <path class="cls-1" d="M19.1,11.95c.28.15.53.12.75-.1s.25-.47.1-.75l-1.45-2.7-1.05,2.7,1.65.85ZM14.1,11h1.2l2.4-5.95c.05-.13.04-.25-.04-.34s-.16-.16-.26-.21l-2-.8c-.15-.05-.3-.03-.44.05s-.23.2-.26.35l-.6,6.9ZM6.7,11h1.2l-.6-6.9c-.03-.18-.12-.31-.26-.38s-.29-.08-.44-.03l-2,.8c-.13.05-.23.12-.29.21s-.06.2-.01.34l2.4,5.95ZM2.9,11.95l1.65-.85-1.05-2.7-1.45,2.7c-.15.28-.12.53.1.75.22.22.47.25.75.1ZM9.9,11h2.2l.75-8.45c.03-.15,0-.28-.11-.39s-.24-.16-.39-.16h-2.7c-.13,0-.25.05-.36.16s-.15.24-.14.39l.75,8.45ZM2.45,14c-.7,0-1.28-.26-1.75-.79-.47-.53-.7-1.15-.7-1.86,0-.2.03-.4.09-.59s.13-.38.21-.56l2.2-4.2c-.23-.67-.23-1.33.03-1.98s.69-1.11,1.33-1.38l2-.8c.23-.08.47-.14.7-.18s.47-.03.7.03c.23-.48.56-.89.98-1.21s.89-.49,1.43-.49h2.7c.53,0,1.01.16,1.43.49s.74.73.98,1.21c.23-.03.47-.04.7-.01s.47.08.7.16l2,.8c.67.27,1.13.73,1.4,1.38s.25,1.29-.05,1.93l2.2,4.2c.1.18.18.38.23.58s.08.41.08.63c0,.75-.25,1.38-.76,1.89s-1.14.76-1.89.76c-.18,0-.37-.02-.55-.06s-.37-.1-.55-.19l-1.55-.75H5.25l-1.4.75c-.22.12-.45.19-.69.21s-.48.04-.71.04Z"/>
  </g>
</svg>