<?xml version="1.0" encoding="UTF-8"?>
<svg id="Layer_2" data-name="Layer 2" xmlns="http://www.w3.org/2000/svg" viewBox="0 0 20 18">
  <defs>
    <style>
      .cls-1 {
        fill: #f3f3f4;
        stroke-width: 0px;
      }
    </style>
  </defs>
  <g id="Layer_1-2" data-name="Layer 1">
    <path class="cls-1" d="M2,18c-.55,0-1.02-.2-1.41-.59-.39-.39-.59-.86-.59-1.41v-3h20v3c0,.55-.2,1.02-.59,1.41-.39.39-.86.59-1.41.59H2ZM2,15v1h16v-1H2ZM10,10.5c-.6,0-1.08.17-1.43.5s-.99.5-1.93.5-1.57-.17-1.9-.5-.8-.5-1.4-.5-1.08.17-1.43.5-.99.5-1.93.5v-2c.6,0,1.08-.17,1.43-.5s.99-.5,1.93-.5,1.57.17,1.9.5.8.5,1.4.5,1.08-.17,1.43-.5.99-.5,1.93-.5,1.58.17,1.93.5.83.5,1.43.5,1.07-.17,1.4-.5.97-.5,1.9-.5,1.59.17,1.98.5.84.5,1.38.5v2c-.93,0-1.56-.17-1.88-.5s-.78-.5-1.38-.5-1.08.17-1.45.5-1.02.5-1.95.5-1.58-.17-1.93-.5-.83-.5-1.43-.5ZM0,7v-1c0-1.92.9-3.4,2.71-4.44,1.81-1.04,4.24-1.56,7.29-1.56s5.48.52,7.29,1.56,2.71,2.52,2.71,4.44v1H0ZM10,2c-2.07,0-3.8.26-5.19.78-1.39.52-2.28,1.26-2.66,2.23h15.7c-.38-.97-1.27-1.71-2.66-2.23s-3.12-.78-5.19-.78Z"/>
  </g>
</svg>