<?xml version="1.0" encoding="UTF-8"?>
<svg id="Layer_2" data-name="Layer 2" xmlns="http://www.w3.org/2000/svg" viewBox="0 0 20 20">
  <defs>
    <style>
      .cls-1 {
        fill: #fff;
        stroke-width: 0px;
      }
    </style>
  </defs>
  <g id="Layer_1-2" data-name="Layer 1">
    <path class="cls-1" d="M14,20c-1.67,0-3.08-.58-4.25-1.75-1.17-1.17-1.75-2.58-1.75-4.25s.58-3.08,1.75-4.25,2.58-1.75,4.25-1.75,3.08.58,4.25,1.75c1.17,1.17,1.75,2.58,1.75,4.25s-.58,3.08-1.75,4.25c-1.17,1.17-2.58,1.75-4.25,1.75ZM14,18c1.1,0,2.04-.39,2.83-1.18s1.18-1.73,1.18-2.83-.39-2.04-1.18-2.83-1.73-1.18-2.83-1.18-2.04.39-2.83,1.18c-.78.78-1.18,1.73-1.18,2.83s.39,2.04,1.18,2.83c.78.78,1.73,1.18,2.83,1.18ZM2,18c-.55,0-1.02-.2-1.41-.59s-.59-.86-.59-1.41v-7.6c0-.13.01-.27.04-.4s.06-.27.11-.4L2.15,3h-.15c-.28,0-.52-.1-.71-.29-.19-.19-.29-.43-.29-.71v-1c0-.28.1-.52.29-.71.19-.19.43-.29.71-.29h7c.28,0,.52.1.71.29s.29.43.29.71v1c0,.28-.1.52-.29.71s-.43.29-.71.29h-.15l1.65,3.8c-.32.17-.62.34-.9.53s-.55.39-.8.63l-2.1-4.95h-2.4l-2.3,5.4v7.6h4.25c.08.35.2.7.34,1.04s.31.66.51.96H2ZM14,7c-.7,0-1.29-.24-1.78-.73s-.73-1.08-.73-1.78.24-1.29.73-1.78,1.08-.73,1.78-.73v5c0-.7.24-1.29.73-1.78s1.08-.73,1.78-.73,1.29.24,1.78.73.73,1.08.73,1.78h-5Z"/>
  </g>
</svg>