<?xml version="1.0" encoding="UTF-8"?>
<svg id="Layer_2" data-name="Layer 2" xmlns="http://www.w3.org/2000/svg" viewBox="0 0 8.6 4.7">
  <defs>
    <style>
      .cls-1 {
        fill: #6d6d6d;
        stroke-width: 0px;
      }
    </style>
  </defs>
  <g id="Layer_1-2" data-name="Layer 1">
    <path class="cls-1" d="M3.78,4.48L.15.85c-.05-.05-.09-.1-.11-.16s-.04-.12-.04-.19c0-.13.05-.25.14-.35s.21-.15.36-.15h7.6c.15,0,.27.05.36.15s.14.22.14.35c0,.03-.05.15-.15.35l-3.63,3.63c-.08.08-.17.14-.25.18s-.18.05-.28.05-.19-.02-.28-.05-.17-.09-.25-.18Z"/>
  </g>
</svg>