<?xml version="1.0" encoding="UTF-8"?>
<svg id="Layer_2" data-name="Layer 2" xmlns="http://www.w3.org/2000/svg" viewBox="0 0 20 20">
  <defs>
    <style>
      .cls-1 {
        fill: #f3f3f4;
        stroke-width: 0px;
      }
    </style>
  </defs>
  <g id="Layer_1-2" data-name="Layer 1">
    <path class="cls-1" d="M14,20c-1.12,0-1.96-.19-2.54-.56s-1.06-.77-1.46-1.19c-.32-.33-.62-.63-.91-.88s-.66-.38-1.11-.38c-.75,0-1.58-.13-2.5-.39s-1.78-.68-2.59-1.28c-.81-.59-1.49-1.36-2.04-2.31S.02,10.91,0,9.53c-.03-2.78.65-5.07,2.06-6.85C3.47.89,5.44,0,7.98,0c1.18,0,2.18.17,3,.51.82.34,1.52.77,2.11,1.29s1.09,1.09,1.5,1.71.8,1.23,1.16,1.81c.2.33.4.64.6.91s.42.53.65.76c1,1,1.75,1.88,2.25,2.63s.75,1.88.75,3.4c0,2-.62,3.66-1.86,4.99s-2.62,1.99-4.14,1.99ZM14,18c.95,0,1.85-.47,2.71-1.41s1.29-2.13,1.29-3.56c0-1.1-.16-1.91-.49-2.43s-.96-1.25-1.91-2.2c-.35-.33-.66-.7-.94-1.11s-.55-.83-.84-1.26c-.68-1.08-1.41-2.03-2.18-2.83s-1.99-1.2-3.68-1.2c-2.15,0-3.69.77-4.63,2.31s-1.38,3.27-1.35,5.19c.02,1.12.26,2.03.73,2.75s1.02,1.28,1.66,1.69c.64.41,1.3.69,1.96.84s1.21.23,1.63.23c.85,0,1.53.2,2.05.61.52.41.94.79,1.28,1.14.37.38.72.69,1.06.91s.89.34,1.64.34ZM10,13.5c.97,0,1.79-.34,2.48-1.03s1.03-1.51,1.03-2.48-.34-1.79-1.03-2.48-1.51-1.03-2.48-1.03-1.79.34-2.48,1.03-1.03,1.51-1.03,2.48.34,1.79,1.03,2.48,1.51,1.03,2.48,1.03Z"/>
  </g>
</svg>