<?xml version="1.0" encoding="UTF-8"?>
<svg id="Layer_2" data-name="Layer 2" xmlns="http://www.w3.org/2000/svg" viewBox="0 0 19.98 19.99">
  <defs>
    <style>
      .cls-1 {
        fill: #fff;
        stroke-width: 0px;
      }
    </style>
  </defs>
  <g id="Layer_1-2" data-name="Layer 1">
    <path class="cls-1" d="M18.63,7.39l-1.4-1.4.75-.78-3.2-3.2-.78.75-1.43-1.43.75-.78C13.71.18,14.18,0,14.75,0s1.04.2,1.43.59l3.23,3.23c.38.38.58.85.58,1.41s-.19,1.03-.58,1.41l-.78.75ZM6.63,19.41c-.38.38-.85.58-1.41.58s-1.03-.19-1.41-.58l-3.23-3.23c-.38-.38-.58-.85-.58-1.41s.19-1.03.58-1.41l.75-.75,1.43,1.43-.78.75,3.23,3.23.75-.78,1.43,1.43-.75.75ZM16.55,11.01l1.43-1.43-7.58-7.58-1.43,1.43,7.58,7.58ZM9.55,18.01l1.43-1.45-7.55-7.55-1.45,1.43,7.58,7.58ZM9.4,12.16l2.75-2.73-1.6-1.6-2.73,2.75,1.58,1.58ZM10.98,19.41c-.38.38-.86.58-1.43.58s-1.04-.19-1.43-.58L.58,11.86c-.38-.38-.58-.86-.58-1.43s.19-1.04.58-1.43l1.43-1.43c.38-.38.85-.58,1.41-.58s1.03.19,1.41.58l1.58,1.58,2.75-2.75-1.58-1.55c-.38-.38-.58-.86-.58-1.43s.19-1.04.58-1.43l1.43-1.43C9.38.2,9.85.01,10.41.01s1.03.19,1.41.58l7.58,7.58c.38.38.58.85.58,1.41s-.19,1.03-.58,1.41l-1.43,1.43c-.38.38-.86.58-1.43.58s-1.04-.19-1.43-.58l-1.55-1.58-2.75,2.75,1.58,1.58c.38.38.58.85.58,1.41s-.19,1.03-.58,1.41l-1.43,1.43Z"/>
  </g>
</svg>