<?xml version="1.0" encoding="UTF-8"?>
<svg id="Layer_2" data-name="Layer 2" xmlns="http://www.w3.org/2000/svg" viewBox="0 0 20 18.03">
  <defs>
    <style>
      .cls-1 {
        fill: #fff;
        stroke-width: 0px;
      }
    </style>
  </defs>
  <g id="Layer_1-2" data-name="Layer 1">
    <path class="cls-1" d="M5.38,18.03c-.6-.02-1.17-.17-1.71-.46-.54-.29-1.05-.72-1.54-1.29-.67-.8-1.19-1.75-1.56-2.86s-.56-2.25-.56-3.41c0-1.38.26-2.68.79-3.9s1.24-2.28,2.14-3.18,1.96-1.61,3.18-2.14,2.52-.79,3.9-.79,2.68.27,3.9.8,2.28,1.26,3.18,2.18,1.61,1.99,2.14,3.23.79,2.56.79,3.98c0,1.28-.21,2.48-.63,3.6-.42,1.12-1.01,2.06-1.78,2.83-.47.47-.96.82-1.48,1.06-.52.24-1.04.36-1.58.36-.3,0-.6-.04-.9-.11s-.6-.19-.9-.34l-1.4-.7c-.2-.1-.41-.18-.64-.23s-.46-.08-.71-.08-.49.03-.71.08-.44.13-.64.23l-1.4.7c-.32.17-.63.29-.94.36s-.62.1-.94.09ZM5.43,16.03c.15,0,.3-.02.46-.05s.31-.09.46-.18l1.4-.7c.35-.18.71-.32,1.09-.4s.75-.13,1.14-.13.77.04,1.15.13c.38.08.75.22,1.1.4l1.43.7c.15.08.3.14.45.18s.3.05.45.05c.32,0,.62-.08.9-.25s.57-.42.85-.75c.53-.63.95-1.39,1.25-2.28s.45-1.79.45-2.73c0-2.23-.78-4.13-2.33-5.69s-3.44-2.34-5.68-2.34-4.13.78-5.68,2.35-2.33,3.47-2.33,5.7c0,.95.15,1.88.46,2.78s.74,1.66,1.29,2.28c.28.33.56.57.83.71.27.14.55.21.85.21ZM10,12c.55,0,1.02-.2,1.41-.59s.59-.86.59-1.41c0-.13-.01-.27-.04-.4s-.06-.27-.11-.4l1.25-1.68c.17.22.31.45.44.69.13.24.23.5.31.79h2.05c-.25-1.47-.93-2.67-2.04-3.6s-2.4-1.4-3.86-1.4-2.76.47-3.88,1.41-1.79,2.14-2.03,3.59h2.05c.23-.9.71-1.63,1.43-2.18s1.53-.83,2.43-.83c.28,0,.55.03.8.08s.49.13.73.23l-1.28,1.73s-.08,0-.13-.01-.09-.01-.13-.01c-.55,0-1.02.2-1.41.59-.39.39-.59.86-.59,1.41s.2,1.02.59,1.41.86.59,1.41.59Z"/>
  </g>
</svg>